{"title":"The Resident-AC3-XviD-BRRip 2011 TBS","uid":6154357,"size":1336456264,"categoryP":"video","categoryS":"movies","magnet":"?xt=urn:btih:1a7239cf69d7011599b4b1b7c932d643b6abc6f7&amp;dn=The+Resident-AC3-XviD-BRRip+2011+TBS&amp;tr=udp%3A%2F%2Ftracker.openbittorrent.com%3A80&amp;tr=udp%3A%2F%2Fopen.demonii.com%3A1337&amp;tr=udp%3A%2F%2Ftracker.coppersurfer.tk%3A6969&amp;tr=udp%3A%2F%2Fexodus.desync.com%3A6969","seeders":0,"leechers":1,"uploader":"FatFreddy30","files":-1,"time":1296950418,"description":"When a young doctor suspects she may not be alone in her new Brooklyn loft, she learns that her landlord has formed a frightening obsession with her..\n &lt;a href=&quot;\nhttp://www.imdb.com/title/tt1334102/&quot; rel=&quot;nofollow&quot; target=&quot;_NEW&quot;&gt;\nhttp://www.imdb.com/title/tt1334102/&lt;/a&gt;\n\nSubs: Dutch(srt).\n\n\nDr. Juliet Dermer (Hilary Swank) betrekt een nieuw huurhuis in Brooklyn. Al snel voelt ze echter dat ze wel ÃƒÂ©rg in de gaten wordt gehouden door haar huisbaas, Max (Jeffrey Dean Morgan). Wanneer duidelijk wordt dat Max een griezelige obsessie voor Juliet heeft, begint een gevaarlijk kat- en muisspel.\n &lt;a href=&quot;\nhttp://www.moviemeter.nl/film/61271&quot; rel=&quot;nofollow&quot; target=&quot;_NEW&quot;&gt;\nhttp://www.moviemeter.nl/film/61271&lt;/a&gt;\n\nOndertitels: Nederlands (srt)\n\n\nGeneral\nComplete name                    : The Resident-AC3-XviD-BRRip 2011 TBS\\The Resident-AC3-XviD-BRRip 2011 TBS.avi\nFormat                           : AVI\nFormat/Info                      : Audio Video Interleave\nFile size                        : 1.24 GiB\nDuration                         : 1h 31mn\nOverall bit rate                 : 1 951 Kbps\nWriting application              : VirtualDubMod 1.5.4.1 (build 2178/release)\nWriting library                  : VirtualDubMod build 2178/release\nSource                           : The Resident (2011) 720p BluRay x264 DTS - TeamTNT\n\nVideo\nID                               : 0\nFormat                           : MPEG-4 Visual\nFormat profile                   : Simple@L3\nFormat settings, BVOP            : No\nFormat settings, QPel            : No\nFormat settings, GMC             : No warppoints\nFormat settings, Matrix          : Default (H.263)\nCodec ID                         : XVID\nCodec ID/Hint                    : XviD\nDuration                         : 1h 31mn\nBit rate                         : 1 493 Kbps\nWidth                            : 720 pixels\nHeight                           : 304 pixels\nDisplay aspect ratio             : 2.35:1\nFrame rate                       : 23.976 fps\nResolution                       : 8 bits\nColorimetry                      : 4:2:0\nScan type                        : Progressive\nBits/(Pixel*Frame)               : 0.285\nStream size                      : 975 MiB (77%)\nWriting library                  : XviD 1.1.2 (UTC 2006-11-01)\n\nAudio\nID                               : 1\nFormat                           : AC-3\nFormat/Info                      : Audio Coding 3\nCodec ID                         : 2000\nDuration                         : 1h 31mn\nBit rate mode                    : Constant\nBit rate                         : 448 Kbps\nChannel(s)                       : 6 channels\nChannel positions                : Front: L C R, Surround: L R, LFE\nSampling rate                    : 48.0 KHz\nStream size                      : 293 MiB (23%)\nAlignment                        : Split accross interleaves\nInterleave, duration             : 42 ms (1.00 video frame)\nInterleave, preload duration     : 500 ms\n\nThanks to Simply Releases Toppers for the Dutch subs. Awesome job peeps!\n\nBlackbeard  TBS.","torrent":{"xt":"urn:btih:1a7239cf69d7011599b4b1b7c932d643b6abc6f7","amp;dn":"The+Resident-AC3-XviD-BRRip+2011+TBS","amp;tr":["udp%3A%2F%2Ftracker.openbittorrent.com%3A80","udp%3A%2F%2Fopen.demonii.com%3A1337","udp%3A%2F%2Ftracker.coppersurfer.tk%3A6969","udp%3A%2F%2Fexodus.desync.com%3A6969"],"infoHash":"1a7239cf69d7011599b4b1b7c932d643b6abc6f7","infoHashBuffer":{"type":"Buffer","data":[26,114,57,207,105,215,1,21,153,180,177,183,201,50,214,67,182,171,198,247]},"announce":[],"urlList":[]}}